<svg width="20" height="21" viewBox="0 0 20 21" fill="none" xmlns="http://www.w3.org/2000/svg">
<path fill-rule="evenodd" clip-rule="evenodd" d="M3.90238 4.40241C0.921375 7.38341 0.921375 12.2166 3.90238 15.1976C6.88338 18.1786 11.7165 18.1786 14.6975 15.1976C17.6785 12.2166 17.6785 7.38341 14.6975 4.40241C11.7165 1.42141 6.88338 1.42141 3.90238 4.40241ZM5.08089 5.58092C7.41102 3.25079 11.1889 3.25079 13.519 5.58092C15.8492 7.91105 15.8492 11.6889 13.519 14.0191C11.1889 16.3492 7.41102 16.3492 5.08089 14.0191C2.75076 11.6889 2.75076 7.91105 5.08089 5.58092Z" fill="#92929D"/>
<path d="M18.4119 17.4021L14.9707 13.9608C14.185 13.1752 13.0065 14.3537 13.7922 15.1393L17.2334 18.5806C18.0191 19.3662 19.1976 18.1877 18.4119 17.4021Z" fill="#92929D"/>
</svg>
